<?xml version="1.0" encoding="UTF-8"?>
<svg id="Layer_2" data-name="Layer 2" xmlns="http://www.w3.org/2000/svg" viewBox="0 0 395.42 93.64">
  <defs>
    <style>
      .cls-1 {
        fill: none;
      }

      .cls-2 {
        fill: #231f20;
      }
    </style>
  </defs>
  <g id="Layer_1-2" data-name="Layer 1">
    <path class="cls-2" d="m44.83,0h40.16c10.26,0,35.29,0,35.29,25.57,0,10.08-4.68,17.65-12.42,20.71,8.64,2.7,14.05,10.62,14.05,20.89,0,26.47-25.39,26.47-36.19,26.47h-40.88V0Zm24.49,23.05v13.87h17.29c4.68,0,9.9,0,9.9-6.84s-5.22-7.02-9.9-7.02h-17.29Zm0,33.67v13.87h17.65c4.68,0,10.08,0,10.08-7.02s-5.4-6.84-10.08-6.84h-17.65Z"/>
    <path class="cls-2" d="m187.1,0v23.23h-41.78v12.42h31.33v21.97h-31.33v12.78h41.78v23.23h-66.27V0h66.27Z"/>
    <path class="cls-2" d="m186.38,0h28.27c19.81,0,49.16,0,49.16,33.49,0,17.29-8.1,25.57-18.55,29.71l21.25,30.43h-27.91l-17.47-26.47h-10.26v26.47h-24.49V0Zm24.49,23.05v22.51h10.62c9.18,0,17.11,0,17.11-11.34s-8.46-11.16-17.11-11.16h-10.62Z"/>
    <path class="cls-2" d="m286.87,0v93.64h-24.49V0h24.49Z"/>
    <path class="cls-2" d="m352.42,0v23.41h-20.89v70.23h-24.49V23.41h-20.89V0h66.26Z"/>
    <rect class="cls-1" width="395.42" height="93.64"/>
  </g>
</svg>